<svg width="64" height="64" viewBox="0 0 64 64" fill="none" xmlns="http://www.w3.org/2000/svg">
<path d="M24 25.5V27.5H22.5V29H20.5V27.5H19V25.5H20.5V24H22.5V25.5H24Z" fill="#055064"/>
<path d="M40 17H38V16H37V14H38V13H40V14H41V16H40V17Z" fill="#055064"/>
<path fill-rule="evenodd" clip-rule="evenodd" d="M21.5402 59C20.1563 59 19 57.8438 19 56.4598V38.691C19 37.307 20.1563 36.1533 21.5402 36.1533H25.3517C26.2911 36.1533 27.1137 36.6922 27.5524 37.4667C28.0587 37.1565 28.56 36.9222 28.9971 36.718C29.2994 36.5766 29.5711 36.4497 29.7926 36.3218C31.0691 35.5848 31.7176 33.5098 32.0205 31.348C32.0938 30.8253 32.1505 30.3124 32.2045 29.8241C32.2621 29.3027 32.3167 28.8093 32.385 28.3617C32.4512 27.9284 32.5169 27.5437 32.6948 27.1251C32.7835 26.9158 32.9005 26.6861 33.1456 26.451C33.3907 26.216 33.8204 26 34.2311 26C36.1132 26 37.656 26.7357 38.6423 27.8636C39.6286 28.9916 40.0896 30.405 40.3374 31.809C40.7139 33.9412 40.6074 35.769 40.5282 37.1289C40.5222 37.2309 40.5164 37.3304 40.511 37.4271H48.186C50.2729 37.4271 52 39.1443 52 41.2312C52 41.8764 51.8404 42.3826 51.6218 43.0756C51.5897 43.1776 51.5563 43.2836 51.5219 43.3946C51.2538 44.2608 50.89 45.3031 50.491 46.4205C50.2225 47.1723 49.9368 47.9579 49.6522 48.7404C49.0909 50.2842 48.5339 51.8159 48.1218 53.0523C47.8738 53.7966 47.5513 54.5778 46.9694 55.2529C46.3875 55.928 45.4498 56.4598 44.3846 56.4598H30.2158L30.2156 53.9221H44.3844C44.7249 53.9221 44.8241 53.8553 45.0485 53.595C45.273 53.3347 45.5185 52.8338 45.7152 52.2444C46.1443 50.9571 46.7063 49.4138 47.2659 47.8773C47.5512 47.0942 47.8357 46.3128 48.1017 45.568C48.4954 44.465 48.8481 43.443 49.0955 42.6437C49.252 42.1381 49.3573 41.6646 49.4136 41.4116C49.4462 41.2648 49.4623 41.1923 49.4623 41.2312C49.4623 40.5063 48.9109 39.9673 48.1861 39.9673H39.1951C38.4904 39.9699 37.9186 39.3956 37.9213 38.691C37.9213 38.2786 37.9459 37.7771 37.9733 37.2194C38.0455 35.7501 38.1369 33.8912 37.847 32.2476C37.647 31.1139 37.271 30.1581 36.7317 29.5414C36.3323 29.0843 35.7685 28.7251 34.9177 28.5873C34.8499 28.9723 34.7936 29.5014 34.7313 30.0868C34.6764 30.6024 34.6169 31.1618 34.5408 31.7049C34.2094 34.069 33.5865 37.0617 31.0564 38.5225C30.6053 38.7829 30.1611 38.9912 29.7606 39.179C29.3254 39.3831 28.9419 39.563 28.6575 39.7591C28.1113 40.1357 27.8892 40.3377 27.8892 41.2312V52.6483L27.8896 56.4598C27.8896 57.8438 26.7358 59 25.3519 59H21.5402ZM21.5402 56.4598H25.3517V52.6483V41.2312V38.691H21.5402V56.4598Z" fill="#055064"/>
<path d="M54.5 29H52.5V27.5H51V25.5H52.5V24H54.5V25.5H56V27.5H54.5V29Z" fill="#055064"/>
</svg>
