<svg width="64" height="64" viewBox="0 0 64 64" fill="none" xmlns="http://www.w3.org/2000/svg">
<path d="M17 28.5V30.5H15.5V32H13.5V30.5H12V28.5H13.5V27H15.5V28.5H17Z" fill="#055064"/>
<path d="M50.5 8H48.5V6.5H47V4.5H48.5V3H50.5V4.5H52V6.5H50.5V8Z" fill="#055064"/>
<path d="M15 6H13V5H12V3H13V2H15V3H16V5H15V6Z" fill="#055064"/>
<path d="M3 37.2049C3.71793 37.2049 5.08427 37.2049 6.47754 37.2049C8.39818 37.2049 9.95524 38.7618 9.95524 40.6825V54.593C9.95524 56.5136 8.39826 58.0706 6.47762 58.0706H3M33.4292 16.3391C38.6456 5.9063 49.9479 12.8617 49.0785 20.6862C48.2091 28.5108 35.168 37.2049 35.168 37.2049C35.168 37.107 22.1269 28.0158 22.1269 18.9473C22.1269 11.992 29.0821 9.38387 33.4292 11.9922M13.4329 51.9848C21.2575 51.9848 23.8657 57.0785 31.6904 57.0785C37.7762 57.0785 46.9739 50.6118 49.0785 48.5072C53.4255 44.1602 49.9479 42.2986 47.3396 44.1602C45.7573 45.2896 39.4951 49.0054 36.0374 49.3766C29.0821 50.1232 23.8657 48.5072 22.9963 48.5072M13.4329 39.8132C14.5921 39.8132 17.606 39.8132 20.3881 39.8132C23.8657 39.8132 24.7351 45.0296 28.2127 45.0296C31.6904 45.0296 35.168 44.1602 36.9068 45.899M45.6008 18.9473C45.311 18.037 44.2098 16.0425 42.1232 15.347M5.43433 54.4702H5.60821" stroke="#055064" stroke-width="2" stroke-linecap="round" stroke-linejoin="round"/>
</svg>
