<svg width="1440" height="82" viewBox="0 0 1440 82" fill="none" xmlns="http://www.w3.org/2000/svg">
<path d="M1375.24 -1.15835e-05C1452.74 -4.80825e-06 1480.08 26.8333 1507.74 42L1507.74 107.5L44.7432 107.5C11.4098 88.9999 -126.957 51.9999 -75.7568 51.9999C-11.7568 51.9999 -8.25683 11.4998 114.243 11.4998C236.743 11.4998 284.743 51.9999 344.243 51.9999C396.243 51.9999 481.743 11.4998 551.743 11.4998C633.627 11.4998 662.243 51.9999 764.743 51.9999C867.243 51.9999 901.743 11.4998 973.743 11.4998C1037.24 11.4999 1077.74 42 1170.74 42C1250.24 42 1297.74 -1.83588e-05 1375.24 -1.15835e-05Z" fill="#91D8E4"/>
</svg>
