<svg width="64" height="64" viewBox="0 0 64 64" fill="none" xmlns="http://www.w3.org/2000/svg">
<path d="M13 27.5V29.5H11.5V31H9.5V29.5H8V27.5H9.5V26H11.5V27.5H13Z" fill="#055064"/>
<path d="M26 11H24V10H23V8H24V7H26V8H27V10H26V11Z" fill="#055064"/>
<path d="M3 37.2049C3.71793 37.2049 5.08427 37.2049 6.47754 37.2049C8.39818 37.2049 9.95524 38.7618 9.95524 40.6825V54.593C9.95524 56.5136 8.39826 58.0706 6.47762 58.0706H3M35.168 38.2049V32M13.4329 51.9848C21.2575 51.9848 23.8657 57.0785 31.6904 57.0785C37.7762 57.0785 46.9739 50.6118 49.0785 48.5072C53.4255 44.1602 49.9479 42.2986 47.3396 44.1602C45.7573 45.2896 39.4951 49.0054 36.0374 49.3766C29.0821 50.1232 23.8657 48.5072 22.9963 48.5072M13.4329 39.8132C14.5921 39.8132 17.606 39.8132 20.3881 39.8132C23.8657 39.8132 24.7351 45.0296 28.2127 45.0296C31.6904 45.0296 35.168 44.1602 36.9068 45.899M5.43433 54.4702H5.60821M35.168 32C35.4453 29.5 37.4 24.5 43 24.5C43.4453 26.6667 42.5024 31.2 35.168 32ZM35.168 32C34.8906 29.5 33.0243 24.5 27.4243 24.5C26.979 26.6667 27.8336 31.2 35.168 32ZM35.2122 25C40.8122 20.2 37.5455 15.6667 35.2122 14C32.8788 15.6667 29.6122 20.2 35.2122 25Z" stroke="#055064" stroke-width="2" stroke-linecap="round" stroke-linejoin="round"/>
<path d="M60.5 21H58.5V19.5H57V17.5H58.5V16H60.5V17.5H62V19.5H60.5V21Z" fill="#055064"/>
</svg>
